<?xml version="1.0" encoding="utf-8"?><svg version="1.1" id="Camada_1" xmlns="http://www.w3.org/2000/svg" xmlns:xlink="http://www.w3.org/1999/xlink" x="0px" y="0px" viewBox="0 0 256 256" enable-background="new 0 0 256 256" xml:space="preserve"><g><path fill="#FFFFFF" stroke="#000000" stroke-miterlimit="10" d="M4.5,239.5c0,6.6,5.4,12,12,12h223c6.6,0,12-5.4,12-12v-172H4.5
V239.5z"/><g><path fill="#CCCCCC" stroke="#000000" stroke-miterlimit="10" d="M251.5,16.5c0-6.6-5.4-12-12-12h-122v63h134V16.5z"/><path stroke="#000000" stroke-miterlimit="10" d="M16.5,4.5c-6.6,0-12,5.4-12,12v51h113v-63H16.5z"/></g></g><g><g><path fill="none" stroke="#FFFFFF" stroke-miterlimit="10" d="M142,93c-1,6.8-6.8,12.1-13.9,12.1c-7.1,0-12.9-5.2-13.9-12
c-32.6,6.5-57.2,35.3-57.2,69.8c0,39.3,31.9,71.2,71.2,71.2s71.2-31.9,71.2-71.2C199.4,128.3,174.7,99.4,142,93z"/><path fill="#DDDDDD" stroke="#000000" stroke-miterlimit="10" d="M128.5,76.4c-47.7,0-86.3,38.6-86.3,86.3
c0,47.7,38.6,86.3,86.3,86.3s86.3-38.6,86.3-86.3C214.8,115,176.2,76.4,128.5,76.4z M128.2,234.1c-39.3,0-71.2-31.9-71.2-71.2
c0-34.5,24.6-63.3,57.2-69.8c1,6.8,6.9,12,13.9,12c7.1,0,13-5.3,13.9-12.1c32.7,6.4,57.4,35.3,57.4,69.9
C199.4,202.2,167.5,234.1,128.2,234.1z"/></g></g><g></g><circle fill="#FF0000" stroke="#000000" stroke-miterlimit="10" cx="102.8" cy="136.4" r="8.6"/><circle fill="#777777" cx="154.6" cy="188.7" r="8.6"/><circle fill="#0080FF" stroke="#000000" stroke-miterlimit="10" cx="103" cy="188.9" r="8.6"/><circle fill="#C6A105" stroke="#000000" stroke-miterlimit="10" cx="154.8" cy="136.8" r="8.6"/><g><path d="M91.9,179.5v2.2h-8.3c0.1-0.8,0.4-1.6,0.8-2.4s1.3-1.7,2.7-3c1.1-1,1.7-1.7,2-2c0.3-0.5,0.5-1,0.5-1.5
c0-0.5-0.1-0.9-0.4-1.2c-0.3-0.3-0.7-0.4-1.2-0.4c-0.5,0-0.9,0.1-1.2,0.4c-0.3,0.3-0.5,0.8-0.5,1.5l-2.4-0.2
c0.1-1.3,0.6-2.2,1.3-2.8c0.7-0.6,1.7-0.9,2.8-0.9c1.2,0,2.2,0.3,2.9,1c0.7,0.7,1,1.5,1,2.5c0,0.6-0.1,1.1-0.3,1.6
c-0.2,0.5-0.5,1-0.9,1.6c-0.3,0.4-0.8,0.9-1.6,1.6c-0.7,0.7-1.2,1.1-1.4,1.4c-0.2,0.2-0.4,0.4-0.5,0.7H91.9z"/></g><g><path d="M165.3,178.9l2.3-0.3c0.1,0.6,0.3,1,0.6,1.3c0.3,0.3,0.7,0.5,1.2,0.5c0.5,0,0.9-0.2,1.2-0.6c0.3-0.4,0.5-0.9,0.5-1.5
c0-0.6-0.2-1.1-0.5-1.4c-0.3-0.3-0.7-0.5-1.2-0.5c-0.3,0-0.7,0.1-1.1,0.2l0.3-1.9c0.6,0,1.1-0.1,1.5-0.4s0.5-0.7,0.5-1.2
c0-0.4-0.1-0.7-0.4-1s-0.6-0.4-1-0.4c-0.4,0-0.8,0.1-1,0.4s-0.5,0.7-0.5,1.2l-2.2-0.4c0.2-0.7,0.4-1.3,0.7-1.8
c0.3-0.4,0.7-0.8,1.3-1.1s1.2-0.4,1.8-0.4c1.2,0,2.1,0.4,2.8,1.1c0.6,0.6,0.9,1.3,0.9,2.1c0,1.1-0.6,2-1.8,2.6
c0.7,0.2,1.3,0.5,1.7,1c0.4,0.5,0.6,1.2,0.6,1.9c0,1.1-0.4,2-1.2,2.8c-0.8,0.8-1.8,1.1-3,1.1c-1.1,0-2-0.3-2.8-1
C165.9,180.8,165.5,180,165.3,178.9z"/></g><g><path d="M90,154.3h-2.4v-8.9c-0.9,0.8-1.9,1.4-3.1,1.8V145c0.6-0.2,1.3-0.6,2-1.2c0.7-0.6,1.2-1.2,1.5-2H90V154.3z"/></g><g><path d="M170.6,154.7v-2.5h-5.1v-2.1l5.4-7.9h2v7.8h1.5v2.1h-1.5v2.5H170.6z M170.6,150.2v-4.2l-2.8,4.2H170.6z"/></g><g><path d="M137.1,26.6h-1.6v-5.9c-0.6,0.5-1.3,0.9-2,1.2v-1.4c0.4-0.1,0.9-0.4,1.3-0.8s0.8-0.8,1-1.3h1.3V26.6z"/><path d="M139.8,26.6V25h1.6v1.6H139.8z"/><path d="M146.2,26.6v-8.2h5.6v1.4h-4v1.9h3.4v1.4h-3.4v3.5H146.2z"/><path d="M154.4,22.4l-1.4-0.3c0.2-0.6,0.4-1,0.8-1.3c0.4-0.3,1-0.4,1.8-0.4c0.7,0,1.2,0.1,1.6,0.2c0.3,0.2,0.6,0.4,0.7,0.6
c0.1,0.3,0.2,0.7,0.2,1.4l0,1.8c0,0.5,0,0.9,0.1,1.2c0,0.2,0.1,0.5,0.3,0.8h-1.6c0-0.1-0.1-0.3-0.2-0.5c0-0.1,0-0.2-0.1-0.2
c-0.3,0.3-0.6,0.5-0.9,0.6c-0.3,0.1-0.6,0.2-1,0.2c-0.6,0-1.1-0.2-1.5-0.5c-0.4-0.3-0.5-0.8-0.5-1.3c0-0.3,0.1-0.6,0.2-0.9
c0.2-0.3,0.4-0.5,0.7-0.6c0.3-0.1,0.7-0.3,1.3-0.4c0.7-0.1,1.2-0.3,1.5-0.4v-0.2c0-0.3-0.1-0.5-0.2-0.6c-0.1-0.1-0.4-0.2-0.8-0.2
c-0.3,0-0.5,0.1-0.7,0.2C154.6,22,154.5,22.2,154.4,22.4z M156.5,23.7c-0.2,0.1-0.5,0.1-1,0.2c-0.4,0.1-0.7,0.2-0.9,0.3
c-0.2,0.1-0.3,0.3-0.3,0.6c0,0.2,0.1,0.4,0.2,0.6c0.2,0.2,0.4,0.2,0.6,0.2c0.3,0,0.6-0.1,0.8-0.3c0.2-0.1,0.3-0.3,0.4-0.5
c0-0.1,0.1-0.4,0.1-0.8V23.7z"/><path d="M159,24.9l1.6-0.2c0.1,0.3,0.2,0.5,0.4,0.7c0.2,0.2,0.5,0.2,0.9,0.2c0.4,0,0.7-0.1,0.9-0.2c0.1-0.1,0.2-0.2,0.2-0.4
c0-0.1,0-0.2-0.1-0.3c-0.1-0.1-0.3-0.1-0.5-0.2c-1.3-0.3-2.1-0.5-2.4-0.8c-0.5-0.3-0.7-0.8-0.7-1.3c0-0.5,0.2-1,0.6-1.3
c0.4-0.4,1-0.5,1.9-0.5c0.8,0,1.4,0.1,1.8,0.4c0.4,0.3,0.7,0.7,0.8,1.2l-1.5,0.3c-0.1-0.2-0.2-0.4-0.4-0.5
c-0.2-0.1-0.4-0.2-0.8-0.2c-0.4,0-0.7,0.1-0.9,0.2c-0.1,0.1-0.2,0.2-0.2,0.3c0,0.1,0.1,0.2,0.2,0.3c0.1,0.1,0.6,0.3,1.5,0.4
c0.8,0.2,1.4,0.4,1.8,0.7c0.3,0.3,0.5,0.7,0.5,1.2c0,0.5-0.2,1-0.7,1.4c-0.5,0.4-1.1,0.6-2,0.6c-0.8,0-1.5-0.2-1.9-0.5
C159.5,25.9,159.2,25.5,159,24.9z"/><path d="M169.4,24.7L171,25c-0.2,0.6-0.5,1-1,1.3c-0.4,0.3-1,0.5-1.6,0.5c-1,0-1.8-0.3-2.3-1c-0.4-0.5-0.6-1.2-0.6-2.1
c0-1,0.3-1.8,0.8-2.3c0.5-0.6,1.2-0.8,2-0.8c0.9,0,1.6,0.3,2.1,0.9s0.8,1.5,0.7,2.7h-4c0,0.5,0.1,0.8,0.4,1.1
c0.2,0.3,0.5,0.4,0.9,0.4c0.2,0,0.5-0.1,0.6-0.2C169.2,25.2,169.3,25,169.4,24.7z M169.5,23.1c0-0.5-0.1-0.8-0.4-1
c-0.2-0.2-0.5-0.4-0.8-0.4c-0.3,0-0.6,0.1-0.9,0.4c-0.2,0.3-0.3,0.6-0.3,1H169.5z"/><path d="M138.4,38.9v1.5h-5.5c0.1-0.6,0.2-1.1,0.5-1.6c0.3-0.5,0.9-1.2,1.8-2c0.7-0.7,1.1-1.1,1.3-1.3c0.2-0.3,0.3-0.6,0.3-1
c0-0.4-0.1-0.6-0.3-0.8c-0.2-0.2-0.4-0.3-0.8-0.3c-0.3,0-0.6,0.1-0.8,0.3c-0.2,0.2-0.3,0.5-0.3,1l-1.6-0.2c0.1-0.9,0.4-1.5,0.9-1.9
c0.5-0.4,1.1-0.6,1.9-0.6c0.8,0,1.5,0.2,1.9,0.7c0.5,0.4,0.7,1,0.7,1.6c0,0.4-0.1,0.7-0.2,1.1c-0.1,0.3-0.3,0.7-0.6,1.1
c-0.2,0.2-0.5,0.6-1,1c-0.5,0.5-0.8,0.8-0.9,0.9c-0.1,0.1-0.2,0.3-0.3,0.4H138.4z"/><path d="M139.8,40.4v-1.6h1.6v1.6H139.8z"/><path d="M146.2,40.4v-8.2h1.6l3.4,5.5v-5.5h1.5v8.2h-1.7l-3.3-5.4v5.4H146.2z"/><path d="M157.9,38.5l1.6,0.3c-0.2,0.6-0.5,1-1,1.3c-0.4,0.3-1,0.5-1.6,0.5c-1,0-1.8-0.3-2.3-1c-0.4-0.5-0.6-1.2-0.6-2.1
c0-1,0.3-1.8,0.8-2.3c0.5-0.6,1.2-0.8,2-0.8c0.9,0,1.6,0.3,2.1,0.9s0.8,1.5,0.7,2.7h-4c0,0.5,0.1,0.8,0.4,1.1
c0.2,0.3,0.5,0.4,0.9,0.4c0.2,0,0.5-0.1,0.6-0.2C157.7,39,157.8,38.8,157.9,38.5z M158,36.9c0-0.5-0.1-0.8-0.4-1s-0.5-0.4-0.8-0.4
c-0.3,0-0.6,0.1-0.9,0.4c-0.2,0.3-0.3,0.6-0.3,1H158z"/><path d="M164.8,40.4v-0.9c-0.2,0.3-0.5,0.6-0.9,0.8c-0.4,0.2-0.7,0.3-1.1,0.3c-0.4,0-0.8-0.1-1.1-0.3c-0.3-0.2-0.5-0.4-0.7-0.7
c-0.1-0.3-0.2-0.8-0.2-1.3v-3.8h1.6v2.7c0,0.8,0,1.4,0.1,1.5c0.1,0.2,0.2,0.3,0.3,0.4c0.2,0.1,0.3,0.2,0.6,0.2
c0.3,0,0.5-0.1,0.7-0.2c0.2-0.1,0.4-0.3,0.4-0.6s0.1-0.8,0.1-1.6v-2.5h1.6v6H164.8z"/><path d="M170.6,34.4v1.3h-1.1v2.4c0,0.5,0,0.8,0,0.9c0,0.1,0.1,0.1,0.1,0.2c0.1,0.1,0.2,0.1,0.3,0.1c0.1,0,0.4-0.1,0.6-0.2l0.1,1.2
c-0.4,0.2-0.8,0.2-1.2,0.2c-0.3,0-0.5,0-0.8-0.1s-0.4-0.2-0.5-0.4c-0.1-0.2-0.2-0.4-0.2-0.6c0-0.2-0.1-0.6-0.1-1.1v-2.6h-0.7v-1.3
h0.7v-1.2l1.6-0.9v2.1H170.6z"/><path d="M173.2,40.4h-1.6v-6h1.5v0.8c0.3-0.4,0.5-0.7,0.7-0.8c0.2-0.1,0.4-0.2,0.7-0.2c0.4,0,0.7,0.1,1,0.3L175,36
c-0.3-0.2-0.5-0.3-0.7-0.3c-0.2,0-0.4,0.1-0.6,0.2c-0.2,0.1-0.3,0.3-0.4,0.7c-0.1,0.3-0.1,1-0.1,2V40.4z"/><path d="M175.8,37.3c0-0.5,0.1-1,0.4-1.5c0.3-0.5,0.6-0.9,1.1-1.1c0.5-0.3,1-0.4,1.6-0.4c0.9,0,1.6,0.3,2.2,0.9s0.9,1.3,0.9,2.2
c0,0.9-0.3,1.6-0.9,2.2c-0.6,0.6-1.3,0.9-2.2,0.9c-0.5,0-1.1-0.1-1.6-0.4c-0.5-0.2-0.9-0.6-1.1-1.1S175.8,38,175.8,37.3z M177.4,37.4c0,0.6,0.1,1,0.4,1.4c0.3,0.3,0.6,0.5,1,0.5c0.4,0,0.8-0.2,1-0.5c0.3-0.3,0.4-0.8,0.4-1.4c0-0.6-0.1-1-0.4-1.3
c-0.3-0.3-0.6-0.5-1-0.5c-0.4,0-0.8,0.2-1,0.5C177.6,36.4,177.4,36.8,177.4,37.4z"/><path d="M133,52l1.5-0.2c0,0.4,0.2,0.7,0.4,0.9c0.2,0.2,0.5,0.3,0.8,0.3c0.3,0,0.6-0.1,0.8-0.4c0.2-0.2,0.3-0.6,0.3-1
c0-0.4-0.1-0.7-0.3-0.9c-0.2-0.2-0.5-0.3-0.8-0.3c-0.2,0-0.4,0-0.7,0.1l0.2-1.3c0.4,0,0.8-0.1,1-0.3c0.2-0.2,0.3-0.5,0.3-0.8
c0-0.3-0.1-0.5-0.2-0.7c-0.2-0.2-0.4-0.2-0.7-0.2c-0.3,0-0.5,0.1-0.7,0.3c-0.2,0.2-0.3,0.5-0.3,0.8l-1.5-0.2
c0.1-0.5,0.3-0.9,0.5-1.2s0.5-0.5,0.9-0.7c0.4-0.2,0.8-0.3,1.2-0.3c0.8,0,1.4,0.2,1.9,0.7c0.4,0.4,0.6,0.9,0.6,1.4
c0,0.7-0.4,1.3-1.2,1.7c0.5,0.1,0.8,0.3,1.1,0.7s0.4,0.8,0.4,1.3c0,0.7-0.3,1.3-0.8,1.8c-0.5,0.5-1.2,0.8-2,0.8
c-0.7,0-1.4-0.2-1.9-0.6C133.3,53.3,133.1,52.7,133,52z"/><path d="M139.8,54.2v-1.6h1.6v1.6H139.8z"/><path d="M146.2,54.2V46h3.5c0.9,0,1.5,0.1,1.9,0.2c0.4,0.1,0.7,0.4,1,0.8s0.4,0.8,0.4,1.3c0,0.6-0.2,1.1-0.5,1.5s-0.9,0.7-1.6,0.8
c0.4,0.2,0.7,0.4,0.9,0.7c0.2,0.3,0.6,0.7,0.9,1.3l1,1.6h-2l-1.2-1.8c-0.4-0.6-0.7-1-0.9-1.2c-0.2-0.2-0.3-0.3-0.5-0.3
s-0.5-0.1-0.8-0.1h-0.3v3.4H146.2z M147.8,49.4h1.2c0.8,0,1.3,0,1.5-0.1c0.2-0.1,0.4-0.2,0.5-0.3s0.2-0.4,0.2-0.6
c0-0.3-0.1-0.5-0.2-0.7c-0.1-0.2-0.4-0.3-0.6-0.3c-0.1,0-0.5,0-1.2,0h-1.3V49.4z"/><path d="M157.9,52.3l1.6,0.3c-0.2,0.6-0.5,1-1,1.3c-0.4,0.3-1,0.5-1.6,0.5c-1,0-1.8-0.3-2.3-1c-0.4-0.5-0.6-1.2-0.6-2.1
c0-1,0.3-1.8,0.8-2.3c0.5-0.6,1.2-0.8,2-0.8c0.9,0,1.6,0.3,2.1,0.9s0.8,1.5,0.7,2.7h-4c0,0.5,0.1,0.8,0.4,1.1
c0.2,0.3,0.5,0.4,0.9,0.4c0.2,0,0.5-0.1,0.6-0.2C157.7,52.8,157.8,52.6,157.9,52.3z M158,50.7c0-0.5-0.1-0.8-0.4-1
c-0.2-0.2-0.5-0.4-0.8-0.4c-0.3,0-0.6,0.1-0.9,0.4c-0.2,0.3-0.3,0.6-0.3,1H158z"/><path d="M163.6,48.2v1.3h-1.1v2.4c0,0.5,0,0.8,0,0.9c0,0.1,0.1,0.1,0.1,0.2c0.1,0.1,0.2,0.1,0.3,0.1c0.1,0,0.4-0.1,0.6-0.2l0.1,1.2
c-0.4,0.2-0.8,0.2-1.2,0.2c-0.3,0-0.5,0-0.8-0.1c-0.2-0.1-0.4-0.2-0.5-0.4c-0.1-0.2-0.2-0.4-0.2-0.6c0-0.2-0.1-0.6-0.1-1.1v-2.6
h-0.7v-1.3h0.7V47l1.6-0.9v2.1H163.6z"/><path d="M164.3,51.1c0-0.5,0.1-1,0.4-1.5s0.6-0.9,1.1-1.1c0.5-0.3,1-0.4,1.6-0.4c0.9,0,1.6,0.3,2.2,0.9s0.9,1.3,0.9,2.2
c0,0.9-0.3,1.6-0.9,2.2c-0.6,0.6-1.3,0.9-2.2,0.9c-0.5,0-1.1-0.1-1.6-0.4c-0.5-0.2-0.9-0.6-1.1-1.1S164.3,51.8,164.3,51.1z M165.9,51.2c0,0.6,0.1,1,0.4,1.4c0.3,0.3,0.6,0.5,1,0.5c0.4,0,0.8-0.2,1-0.5c0.3-0.3,0.4-0.8,0.4-1.4c0-0.6-0.1-1-0.4-1.3
c-0.3-0.3-0.6-0.5-1-0.5c-0.4,0-0.8,0.2-1,0.5C166.1,50.2,165.9,50.6,165.9,51.2z"/><path d="M173.2,54.2h-1.6v-6h1.5v0.8c0.3-0.4,0.5-0.7,0.7-0.8c0.2-0.1,0.4-0.2,0.7-0.2c0.4,0,0.7,0.1,1,0.3l-0.5,1.4
c-0.3-0.2-0.5-0.3-0.7-0.3c-0.2,0-0.4,0.1-0.6,0.2c-0.2,0.1-0.3,0.3-0.4,0.7c-0.1,0.3-0.1,1-0.1,2V54.2z"/><path d="M181.6,54.2H180v-3c0-0.6,0-1.1-0.1-1.2c-0.1-0.2-0.2-0.3-0.3-0.4c-0.2-0.1-0.3-0.2-0.5-0.2c-0.3,0-0.5,0.1-0.7,0.2
c-0.2,0.1-0.4,0.3-0.4,0.6c-0.1,0.2-0.1,0.7-0.1,1.4v2.7h-1.6v-6h1.5v0.9c0.5-0.7,1.2-1,2-1c0.3,0,0.7,0.1,1,0.2
c0.3,0.1,0.5,0.3,0.7,0.5c0.1,0.2,0.3,0.4,0.3,0.7c0.1,0.2,0.1,0.6,0.1,1.1V54.2z"/><path d="M182.8,51.1c0-0.5,0.1-1,0.4-1.5s0.6-0.9,1.1-1.1c0.5-0.3,1-0.4,1.6-0.4c0.9,0,1.6,0.3,2.2,0.9s0.9,1.3,0.9,2.2
c0,0.9-0.3,1.6-0.9,2.2c-0.6,0.6-1.3,0.9-2.2,0.9c-0.5,0-1.1-0.1-1.6-0.4c-0.5-0.2-0.9-0.6-1.1-1.1S182.8,51.8,182.8,51.1z M184.5,51.2c0,0.6,0.1,1,0.4,1.4c0.3,0.3,0.6,0.5,1,0.5c0.4,0,0.8-0.2,1-0.5c0.3-0.3,0.4-0.8,0.4-1.4c0-0.6-0.1-1-0.4-1.3
c-0.3-0.3-0.6-0.5-1-0.5c-0.4,0-0.8,0.2-1,0.5C184.6,50.2,184.5,50.6,184.5,51.2z"/></g><g><path fill="#FFFEFD" d="M14,28.2v-9.7h3.1c1.2,0,2,0,2.3,0.1c0.6,0.1,1,0.5,1.4,0.9c0.4,0.5,0.6,1.1,0.6,1.9c0,0.6-0.1,1.1-0.3,1.5
c-0.2,0.4-0.5,0.7-0.8,1c-0.3,0.2-0.7,0.4-1,0.5c-0.5,0.1-1.1,0.1-2,0.1H16v3.6H14z M16,20.2v2.7H17c0.8,0,1.3-0.1,1.5-0.2
c0.3-0.1,0.5-0.3,0.6-0.5c0.1-0.2,0.2-0.5,0.2-0.8c0-0.4-0.1-0.6-0.3-0.9c-0.2-0.2-0.5-0.4-0.8-0.4c-0.2,0-0.7-0.1-1.4-0.1H16z"/><path fill="#FFFEFD" d="M22.6,24.6c0-0.6,0.2-1.2,0.5-1.8c0.3-0.6,0.7-1,1.3-1.3c0.6-0.3,1.2-0.5,1.9-0.5c1.1,0,1.9,0.3,2.6,1
c0.7,0.7,1,1.6,1,2.6c0,1.1-0.3,1.9-1,2.6s-1.5,1-2.6,1c-0.6,0-1.3-0.1-1.8-0.4s-1-0.7-1.3-1.3C22.7,26.1,22.6,25.4,22.6,24.6z M24.5,24.7c0,0.7,0.2,1.2,0.5,1.6c0.3,0.4,0.7,0.6,1.2,0.6c0.5,0,0.9-0.2,1.2-0.6c0.3-0.4,0.5-0.9,0.5-1.6c0-0.7-0.2-1.2-0.5-1.6
c-0.3-0.4-0.7-0.6-1.2-0.6c-0.5,0-0.9,0.2-1.2,0.6C24.6,23.5,24.5,24,24.5,24.7z"/><path fill="#FFFEFD" d="M32.5,28.2l-2.2-7h1.8l1.3,4.6l1.2-4.6h1.8l1.2,4.6l1.3-4.6h1.8l-2.2,7h-1.8l-1.2-4.5l-1.2,4.5H32.5z"/><path fill="#FFFEFD" d="M45.8,26l1.8,0.3c-0.2,0.7-0.6,1.2-1.1,1.5c-0.5,0.4-1.2,0.5-1.9,0.5c-1.2,0-2.1-0.4-2.7-1.2
c-0.5-0.6-0.7-1.4-0.7-2.4c0-1.2,0.3-2.1,0.9-2.7c0.6-0.7,1.4-1,2.3-1c1,0,1.9,0.3,2.5,1c0.6,0.7,0.9,1.7,0.9,3.2h-4.6
c0,0.5,0.2,1,0.4,1.3c0.3,0.3,0.6,0.5,1.1,0.5c0.3,0,0.5-0.1,0.7-0.2S45.7,26.3,45.8,26z M45.9,24.1c0-0.5-0.2-0.9-0.4-1.2
c-0.3-0.3-0.6-0.4-1-0.4c-0.4,0-0.7,0.1-1,0.4c-0.3,0.3-0.4,0.7-0.4,1.2H45.9z"/><path fill="#FFFEFD" d="M51,28.2h-1.9v-7h1.7v1c0.3-0.5,0.6-0.8,0.8-0.9s0.5-0.2,0.8-0.2c0.4,0,0.8,0.1,1.2,0.3L53.1,23
c-0.3-0.2-0.6-0.3-0.9-0.3c-0.3,0-0.5,0.1-0.7,0.2c-0.2,0.1-0.3,0.4-0.4,0.8C51.1,24.1,51,24.9,51,26V28.2z"/><path fill="#FFFEFD" d="M57.7,25.1l1.9-0.2c0.1,0.6,0.3,1.1,0.7,1.4c0.3,0.3,0.8,0.4,1.4,0.4c0.6,0,1.1-0.1,1.4-0.4
s0.5-0.6,0.5-0.9c0-0.2-0.1-0.4-0.2-0.6c-0.1-0.2-0.4-0.3-0.7-0.4c-0.2-0.1-0.7-0.2-1.6-0.4c-1-0.3-1.8-0.6-2.2-1
c-0.6-0.5-0.9-1.2-0.9-1.9c0-0.5,0.1-1,0.4-1.4c0.3-0.4,0.7-0.8,1.2-1s1.2-0.3,1.9-0.3c1.2,0,2.1,0.3,2.7,0.8
c0.6,0.5,0.9,1.2,1,2.1l-1.9,0.1c-0.1-0.5-0.3-0.9-0.5-1.1S62.1,20,61.6,20c-0.6,0-1,0.1-1.3,0.3c-0.2,0.1-0.3,0.3-0.3,0.6
c0,0.2,0.1,0.4,0.3,0.6c0.2,0.2,0.8,0.4,1.8,0.6c0.9,0.2,1.6,0.5,2.1,0.7c0.5,0.2,0.8,0.6,1.1,1c0.3,0.4,0.4,0.9,0.4,1.5
c0,0.6-0.2,1.1-0.5,1.6c-0.3,0.5-0.7,0.8-1.3,1.1c-0.6,0.2-1.3,0.4-2.1,0.4c-1.2,0-2.2-0.3-2.8-0.8C58.3,27,57.9,26.1,57.7,25.1z"
/><path fill="#FFFEFD" d="M71.8,28.2v-1c-0.3,0.4-0.6,0.7-1,0.9c-0.4,0.2-0.9,0.3-1.3,0.3c-0.5,0-0.9-0.1-1.3-0.3s-0.6-0.5-0.8-0.9
c-0.2-0.4-0.3-0.9-0.3-1.5v-4.4H69v3.2c0,1,0,1.6,0.1,1.8c0.1,0.2,0.2,0.4,0.4,0.5s0.4,0.2,0.7,0.2c0.3,0,0.6-0.1,0.8-0.3
s0.4-0.4,0.5-0.6c0.1-0.3,0.1-0.9,0.1-1.9v-3h1.9v7H71.8z"/><path fill="#FFFEFD" d="M75.4,21.2h1.7v1c0.2-0.4,0.5-0.6,0.9-0.9c0.4-0.2,0.8-0.3,1.3-0.3c0.8,0,1.5,0.3,2.1,1
c0.6,0.6,0.8,1.5,0.8,2.7c0,1.2-0.3,2.1-0.9,2.7s-1.3,1-2.1,1c-0.4,0-0.7-0.1-1.1-0.2c-0.3-0.2-0.6-0.4-1-0.8v3.5h-1.9V21.2z M77.2,24.6c0,0.8,0.2,1.4,0.5,1.7s0.7,0.6,1.1,0.6c0.4,0,0.8-0.2,1.1-0.5c0.3-0.3,0.4-0.9,0.4-1.7c0-0.7-0.1-1.3-0.4-1.6
c-0.3-0.4-0.7-0.5-1.1-0.5c-0.5,0-0.8,0.2-1.1,0.5S77.2,23.9,77.2,24.6z"/><path fill="#FFFEFD" d="M83.6,21.2h1.7v1c0.2-0.4,0.5-0.6,0.9-0.9c0.4-0.2,0.8-0.3,1.3-0.3c0.8,0,1.5,0.3,2.1,1
c0.6,0.6,0.8,1.5,0.8,2.7c0,1.2-0.3,2.1-0.9,2.7c-0.6,0.6-1.3,1-2.1,1c-0.4,0-0.7-0.1-1.1-0.2c-0.3-0.2-0.6-0.4-1-0.8v3.5h-1.9
V21.2z M85.5,24.6c0,0.8,0.2,1.4,0.5,1.7c0.3,0.4,0.7,0.6,1.1,0.6c0.4,0,0.8-0.2,1.1-0.5c0.3-0.3,0.4-0.9,0.4-1.7
c0-0.7-0.1-1.3-0.4-1.6c-0.3-0.4-0.7-0.5-1.1-0.5c-0.5,0-0.8,0.2-1.1,0.5S85.5,23.9,85.5,24.6z"/><path fill="#FFFEFD" d="M91.9,28.2v-9.7h1.9v9.7H91.9z"/><path fill="#FFFEFD" d="M94.8,21.2h2l1.7,5l1.6-5h1.9l-2.5,6.7l-0.4,1.2c-0.2,0.4-0.3,0.7-0.5,0.9c-0.1,0.2-0.3,0.4-0.5,0.5
c-0.2,0.1-0.4,0.2-0.7,0.3C97.1,31,96.8,31,96.5,31c-0.4,0-0.7,0-1-0.1l-0.2-1.4c0.3,0.1,0.6,0.1,0.8,0.1c0.4,0,0.7-0.1,1-0.4
c0.2-0.3,0.4-0.6,0.5-1L94.8,21.2z"/><path fill="#FFFEFD" d="M13.7,42.1l1.8,0.2c0,0.2,0.1,0.3,0.2,0.4c0.1,0.1,0.4,0.2,0.7,0.2c0.4,0,0.7-0.1,0.9-0.2
c0.1-0.1,0.2-0.2,0.3-0.4c0-0.1,0.1-0.4,0.1-0.7v-0.9c-0.5,0.6-1,0.9-1.7,0.9c-0.8,0-1.4-0.3-1.9-1c-0.4-0.5-0.5-1.2-0.5-2
c0-1,0.2-1.7,0.7-2.2c0.5-0.5,1.1-0.8,1.8-0.8c0.7,0,1.3,0.3,1.8,0.9v-0.8h1.4v5.2c0,0.7-0.1,1.2-0.2,1.5c-0.1,0.3-0.3,0.6-0.5,0.8
c-0.2,0.2-0.5,0.3-0.8,0.5c-0.3,0.1-0.8,0.2-1.3,0.2c-1,0-1.7-0.2-2.1-0.5s-0.6-0.8-0.6-1.3C13.7,42.2,13.7,42.1,13.7,42.1z M15.1,38.7c0,0.6,0.1,1.1,0.4,1.4s0.5,0.4,0.9,0.4c0.4,0,0.7-0.1,1-0.4c0.3-0.3,0.4-0.7,0.4-1.3c0-0.6-0.1-1.1-0.4-1.3
c-0.2-0.3-0.6-0.4-0.9-0.4c-0.4,0-0.7,0.1-0.9,0.4C15.2,37.6,15.1,38.1,15.1,38.7z"/><path fill="#FFFEFD" d="M20,41.7l2.1-3l-2-2.8h1.9l1,1.6l1.1-1.6h1.8l-2,2.8l2.2,3.1h-1.9L23,39.9l-1.2,1.8H20z"/><path fill="#FFFEFD" d="M35.2,37.6l-1.5,0.3c-0.1-0.3-0.2-0.5-0.3-0.7c-0.2-0.2-0.4-0.2-0.7-0.2c-0.4,0-0.7,0.1-0.9,0.4
c-0.2,0.3-0.3,0.7-0.3,1.3c0,0.7,0.1,1.2,0.3,1.5s0.5,0.4,0.9,0.4c0.3,0,0.5-0.1,0.7-0.2c0.2-0.2,0.3-0.5,0.4-0.9l1.5,0.3
c-0.2,0.7-0.5,1.2-0.9,1.6c-0.4,0.4-1,0.5-1.8,0.5c-0.9,0-1.5-0.3-2-0.8c-0.5-0.5-0.8-1.3-0.8-2.2c0-1,0.3-1.7,0.8-2.2
c0.5-0.5,1.2-0.8,2.1-0.8c0.7,0,1.3,0.2,1.7,0.5C34.7,36.5,35,37,35.2,37.6z"/><path fill="#FFFEFD" d="M36,38.7c0-0.5,0.1-1,0.4-1.5c0.3-0.5,0.6-0.8,1.1-1.1c0.5-0.3,1-0.4,1.6-0.4c0.9,0,1.6,0.3,2.2,0.9
s0.8,1.3,0.8,2.2c0,0.9-0.3,1.6-0.9,2.2s-1.3,0.9-2.1,0.9c-0.5,0-1-0.1-1.5-0.4s-0.9-0.6-1.1-1.1C36.1,39.9,36,39.4,36,38.7z M37.6,38.8c0,0.6,0.1,1,0.4,1.3s0.6,0.5,1,0.5c0.4,0,0.7-0.2,1-0.5c0.3-0.3,0.4-0.8,0.4-1.3c0-0.6-0.1-1-0.4-1.3
c-0.3-0.3-0.6-0.5-1-0.5c-0.4,0-0.7,0.2-1,0.5S37.6,38.2,37.6,38.8z"/><path fill="#FFFEFD" d="M48.5,41.7H47v-3c0-0.6,0-1-0.1-1.2c-0.1-0.2-0.2-0.3-0.3-0.4c-0.1-0.1-0.3-0.2-0.5-0.2
c-0.3,0-0.5,0.1-0.7,0.2c-0.2,0.1-0.4,0.3-0.4,0.6c-0.1,0.2-0.1,0.7-0.1,1.3v2.6h-1.5v-5.8h1.4v0.9c0.5-0.7,1.1-1,1.9-1
c0.3,0,0.7,0.1,0.9,0.2c0.3,0.1,0.5,0.3,0.6,0.5s0.2,0.4,0.3,0.6c0.1,0.2,0.1,0.6,0.1,1V41.7z"/><path fill="#FFFEFD" d="M55.4,41.7h-1.5v-3c0-0.6,0-1-0.1-1.2c-0.1-0.2-0.2-0.3-0.3-0.4c-0.1-0.1-0.3-0.2-0.5-0.2
c-0.3,0-0.5,0.1-0.7,0.2c-0.2,0.1-0.4,0.3-0.4,0.6s-0.1,0.7-0.1,1.3v2.6h-1.5v-5.8h1.4v0.9c0.5-0.7,1.1-1,1.9-1
c0.3,0,0.7,0.1,0.9,0.2c0.3,0.1,0.5,0.3,0.6,0.5s0.2,0.4,0.3,0.6c0.1,0.2,0.1,0.6,0.1,1V41.7z"/><path fill="#FFFEFD" d="M60.3,39.8l1.5,0.3c-0.2,0.6-0.5,1-0.9,1.3s-1,0.4-1.6,0.4c-1,0-1.8-0.3-2.3-1c-0.4-0.5-0.6-1.2-0.6-2
c0-1,0.3-1.7,0.8-2.3c0.5-0.5,1.1-0.8,1.9-0.8c0.9,0,1.6,0.3,2.1,0.9c0.5,0.6,0.7,1.4,0.7,2.6h-3.9c0,0.5,0.1,0.8,0.4,1.1
s0.5,0.4,0.9,0.4c0.2,0,0.4-0.1,0.6-0.2C60.1,40.3,60.2,40.1,60.3,39.8z M60.4,38.3c0-0.4-0.1-0.8-0.3-1c-0.2-0.2-0.5-0.3-0.8-0.3
c-0.3,0-0.6,0.1-0.8,0.4c-0.2,0.2-0.3,0.6-0.3,1H60.4z"/><path fill="#FFFEFD" d="M68.3,37.6l-1.5,0.3c-0.1-0.3-0.2-0.5-0.3-0.7c-0.2-0.2-0.4-0.2-0.7-0.2c-0.4,0-0.7,0.1-0.9,0.4
c-0.2,0.3-0.3,0.7-0.3,1.3c0,0.7,0.1,1.2,0.3,1.5s0.5,0.4,0.9,0.4c0.3,0,0.5-0.1,0.7-0.2s0.3-0.5,0.4-0.9l1.5,0.3
c-0.2,0.7-0.5,1.2-0.9,1.6c-0.4,0.4-1,0.5-1.8,0.5c-0.9,0-1.5-0.3-2-0.8c-0.5-0.5-0.8-1.3-0.8-2.2c0-1,0.3-1.7,0.8-2.2
c0.5-0.5,1.2-0.8,2.1-0.8c0.7,0,1.3,0.2,1.7,0.5C67.8,36.5,68.1,37,68.3,37.6z"/><path fill="#FFFEFD" d="M72.1,35.9v1.2H71v2.3c0,0.5,0,0.8,0,0.8c0,0.1,0.1,0.1,0.1,0.2c0.1,0.1,0.2,0.1,0.3,0.1
c0.1,0,0.3,0,0.6-0.1l0.1,1.2c-0.4,0.2-0.8,0.2-1.2,0.2c-0.3,0-0.5,0-0.8-0.1c-0.2-0.1-0.4-0.2-0.5-0.4c-0.1-0.1-0.2-0.3-0.2-0.6
c0-0.2,0-0.5,0-1.1v-2.5h-0.7v-1.2h0.7v-1.2l1.5-0.9v2.1H72.1z"/><path fill="#FFFEFD" d="M72.8,38.7c0-0.5,0.1-1,0.4-1.5c0.3-0.5,0.6-0.8,1.1-1.1c0.5-0.3,1-0.4,1.6-0.4c0.9,0,1.6,0.3,2.2,0.9
s0.8,1.3,0.8,2.2c0,0.9-0.3,1.6-0.9,2.2c-0.6,0.6-1.3,0.9-2.1,0.9c-0.5,0-1-0.1-1.5-0.4c-0.5-0.2-0.9-0.6-1.1-1.1
C72.9,39.9,72.8,39.4,72.8,38.7z M74.4,38.8c0,0.6,0.1,1,0.4,1.3c0.3,0.3,0.6,0.5,1,0.5c0.4,0,0.7-0.2,1-0.5s0.4-0.8,0.4-1.3
c0-0.6-0.1-1-0.4-1.3s-0.6-0.5-1-0.5c-0.4,0-0.7,0.2-1,0.5C74.5,37.8,74.4,38.2,74.4,38.8z"/><path fill="#FFFEFD" d="M81.5,41.7H80v-5.8h1.4v0.8c0.2-0.4,0.5-0.6,0.7-0.8c0.2-0.1,0.4-0.2,0.7-0.2c0.4,0,0.7,0.1,1,0.3l-0.5,1.3
c-0.3-0.2-0.5-0.3-0.7-0.3c-0.2,0-0.4,0.1-0.5,0.2c-0.1,0.1-0.3,0.3-0.4,0.6c-0.1,0.3-0.1,1-0.1,2V41.7z"/><path fill="#FFFEFD" d="M16.5,55.2v-1.6h-3.3v-1.4l3.5-5.1H18v5.1h1v1.4h-1v1.6H16.5z M16.5,52.2v-2.7l-1.8,2.7H16.5z"/><path fill="#FFFEFD" d="M23.2,49.4h1.4v0.9c0.2-0.3,0.4-0.5,0.8-0.7c0.3-0.2,0.7-0.3,1.1-0.3c0.7,0,1.3,0.3,1.7,0.8
c0.5,0.5,0.7,1.3,0.7,2.2c0,1-0.2,1.7-0.7,2.3c-0.5,0.5-1.1,0.8-1.7,0.8c-0.3,0-0.6-0.1-0.9-0.2c-0.3-0.1-0.5-0.3-0.8-0.7v2.9h-1.5
V49.4z M24.7,52.2c0,0.7,0.1,1.1,0.4,1.5c0.3,0.3,0.6,0.5,0.9,0.5c0.4,0,0.7-0.1,0.9-0.4s0.4-0.8,0.4-1.4c0-0.6-0.1-1.1-0.4-1.4
c-0.2-0.3-0.5-0.4-0.9-0.4c-0.4,0-0.7,0.1-0.9,0.4C24.8,51.2,24.7,51.6,24.7,52.2z"/><path fill="#FFFEFD" d="M30.1,48.6v-1.4h1.5v1.4H30.1z M30.1,55.2v-5.8h1.5v5.8H30.1z"/><path fill="#FFFEFD" d="M38.5,55.2H37v-3c0-0.6,0-1-0.1-1.2s-0.2-0.3-0.3-0.4c-0.1-0.1-0.3-0.2-0.5-0.2c-0.3,0-0.5,0.1-0.7,0.2
c-0.2,0.1-0.4,0.3-0.4,0.6c-0.1,0.2-0.1,0.7-0.1,1.3v2.6h-1.5v-5.8h1.4v0.9c0.5-0.7,1.1-1,1.9-1c0.3,0,0.7,0.1,0.9,0.2
c0.3,0.1,0.5,0.3,0.6,0.5c0.1,0.2,0.2,0.4,0.3,0.6s0.1,0.6,0.1,1V55.2z"/></g></svg>